<svg xmlns="http://www.w3.org/2000/svg" width="12" height="12" viewBox="0 0 12 12"><g transform="translate(-3.375 -3.375)"><path d="M7.684,15.133h5.5a.161.161,0,0,0,.13-.254l-2.752-4.425a.159.159,0,0,0-.262,0L7.552,14.879A.162.162,0,0,0,7.684,15.133Z" transform="translate(-2.446 -4.134)" fill="#fff"/><path d="M21.524,16.189l1.01,1.607a.156.156,0,0,0,.13.069H24.2a.161.161,0,0,0,.13-.254l-1.777-2.53a.159.159,0,0,0-.263,0l-.767.926A.166.166,0,0,0,21.524,16.189Z" transform="translate(-10.686 -6.863)" fill="#fff"/><path d="M23.408,9.49a.808.808,0,1,0-.886-.886A.811.811,0,0,0,23.408,9.49Z" transform="translate(-11.29 -2.656)" fill="#fff"/><path d="M14.452,3.375H4.3a.922.922,0,0,0-.923.923V14.452a.922.922,0,0,0,.923.923H14.452a.922.922,0,0,0,.923-.923V4.3A.922.922,0,0,0,14.452,3.375Zm-.078,8.077a.231.231,0,0,1-.231.231H4.607a.231.231,0,0,1-.231-.231V4.607a.231.231,0,0,1,.231-.231h9.539a.231.231,0,0,1,.231.231v6.845Z" fill="#fff"/></g></svg>