<svg xmlns="http://www.w3.org/2000/svg" width="7.404" height="14" viewBox="0 0 7.404 14"><g transform="translate(-10.266 -3.375)"><path d="M15.654,13.067h0a2.16,2.16,0,0,0,2.154-2.154V5.529a2.16,2.16,0,0,0-2.154-2.154h0A2.16,2.16,0,0,0,13.5,5.529v5.385A2.16,2.16,0,0,0,15.654,13.067Z" transform="translate(-1.686)" fill="#fff"/><path d="M17.2,13.5a.473.473,0,0,0-.471.471v2.322a2.76,2.76,0,0,1-5.519,0V13.971a.471.471,0,1,0-.942,0v2.322A3.707,3.707,0,0,0,13.5,19.965v1.747H12.285a.471.471,0,1,0,0,.942H15.65a.471.471,0,1,0,0-.942H14.439V19.965a3.707,3.707,0,0,0,3.231-3.672V13.971A.473.473,0,0,0,17.2,13.5Z" transform="translate(0 -5.279)" fill="#fff"/></g></svg>