<svg xmlns="http://www.w3.org/2000/svg" width="16.492" height="21.464" viewBox="0 0 16.492 21.464"><path d="M30.318,21.464a.828.828,0,0,1-.818-.838A7.546,7.546,0,0,1,36.941,13h1.227a7.261,7.261,0,0,1,2.451.424.844.844,0,0,1,.5,1.068c-.149.437-.382.618-.809.466a7.042,7.042,0,0,0-2.145-.28H36.941a5.887,5.887,0,0,0-5.806,5.953A.828.828,0,0,1,30.318,21.464Zm12.675-15.8a5.521,5.521,0,1,0-11.039,0,5.521,5.521,0,1,0,11.039,0Zm-8.173,0c0,2.2,6.736-1.467,4.595-1.467s-2.188,3.083-3.714,1,.326,1.791,2.468,1.791S34.82,3.463,34.82,5.659Z" transform="translate(-29.5 0)" fill="#fff"/><path d="M42.175,21.464a.828.828,0,0,0,.818-.838A7.546,7.546,0,0,0,35.551,13H34.325a7.261,7.261,0,0,0-2.451.424.844.844,0,0,0-.5,1.068c.149.437.421.493.848.341a6.746,6.746,0,0,1,2.106-.155h1.227a5.887,5.887,0,0,1,5.806,5.953A.828.828,0,0,0,42.175,21.464ZM29.5,5.659a5.521,5.521,0,1,1,11.039,0,5.521,5.521,0,1,1-11.039,0Zm8.173,0c0,2.2-6.736-1.467-4.595-1.467s2.188,3.083,3.714,1-.326,1.791-2.468,1.791S37.673,3.463,37.673,5.659Z" transform="translate(-26.5)" fill="#fff"/></svg>